This was rel earlier this yr but not all parts were rel.  Here's the complete pack with all parts.  Please keep seeding.  Thnx


SPRiNTER proudly presents...



ÛÛÛÛÛÛÛÛÛÛÛÛÛÛÛÛÛÛÛÛÛÛÛÛÛÛÛÛÛÛÛÛÛÛÛÛÛÛÛÛÛÛÛÛÛÛÛÛÛÛÛÛÛÛÛÛÛÛÛÛÛÛÛÛÛÛÛÛÛÛÛÛÛÛÛÛÛÛÛÛÛÛÛÛÛÛÛÛÛÛÛÛÛÛ



Greatest.Battles.Of.The.Civil.War.2009.Part.1.DVDRip.XviD-SPRiNTER
 
http://www.amazon.ca/Civil-War-Greatest-Battles/dp/B002MXN24Y

Subtitles: English



Date: 2010.01



Director: Joel Schumacher

Genre: Documentary

Plot: Gods And Generals. Victories And Defeats. The True Stories Behind The Greatest Battles. Antietam. Shiloh. Chickamauga. Gettysburg. These were the fields of combat where the armies of North and South fought their most ferocious battles. They remain the legendary clashes that shaped the conflict and changed our nation forever. Discover the stories behind The Greatest Battles Of The Civil War, from the commanders' remarkable strategies to the staggering human costs of those who fought and died for their ideals. Their legacies come alive in these eight documentaries from the award-winning producers of The Civil War Journals, featuring rare photographs, stunning reenactments and revealing interviews with leading Civil War historians. 





Release notes:



Episode name: The Battle of Antietam



Enjoy!



Format                           : AVI

Format/Info                      : Audio Video Interleave

File size                        : 701 MiB

Duration                         : 47mn 44s

Overall bit rate                 : 2 052 Kbps

Writing application              : VirtualDubMod 1.5.10.2 (build 2540/release)

Writing library                  : VirtualDubMod build 2540/release



Video

ID                               : 0

Format                           : MPEG-4 Visual

Format profile                   : AdvancedSimple@L5

Format settings, BVOP            : Yes

Format settings, QPel            : No

Format settings, GMC             : No warppoints

Format settings, Matrix          : Default (H.263)

Codec ID                         : XVID

Codec ID/Hint                    : XviD

Duration                         : 47mn 44s

Bit rate                         : 1 893 Kbps

Width                            : 608 pixels

Height                           : 448 pixels

Display aspect ratio             : 4:3

Frame rate                       : 29.970 fps

Resolution                       : 24 bits

Colorimetry                      : 4:2:0

Scan type                        : Progressive

Bits/(Pixel*Frame)               : 0.232

Stream size                      : 646 MiB (92%)

Writing library                  : XviD 1.2.1 (UTC 2008-12-04)



Audio

ID                               : 1

Format                           : MPEG Audio

Format version                   : Version 1

Format profile                   : Layer 3

Codec ID                         : 55

Codec ID/Hint                    : MP3

Duration                         : 47mn 44s

Bit rate mode                    : Variable

Bit rate                         : 145 Kbps

Channel(s)                       : 2 channels

Sampling rate                    : 48.0 KHz

Resolution                       : 16 bits

Stream size                      : 49.6 MiB (7%)

Alignment                        : Aligned on interleaves

Interleave, duration             : 24 ms (0.72 video frame)

Interleave, preload duration     : 444 ms

Writing library                  : LAME3.89 (alpha)





ÛÛÛÛÛÛÛÛÛÛÛÛÛÛÛÛÛÛÛÛÛÛÛÛÛÛÛÛÛÛÛÛÛÛÛÛÛÛÛÛÛÛÛÛÛÛÛÛÛÛÛÛÛÛÛÛÛÛÛÛÛÛÛÛÛÛÛÛÛÛÛÛÛÛÛÛÛÛÛÛÛÛÛÛÛÛÛÛÛÛÛÛÛÛ



 

